simulation
nRows=43
nColumns=15
endheader
time  TH_x TH_y TH_z SC_y  SC_z  SC_x  AC_y  AC_z  AC_x  GH_y  GH_z  GH_yy  EL_x  PS_y
0.000000  0.000000  0.000000  0.000000  -21.815094  2.748756  -7.120958  49.128402  14.649952  12.024605  57.274589  -5.535069  -3.415847  21.857724  103.026148
0.028788  0.000000  0.000000  0.000000  -21.791388  2.703254  -7.503517  49.520605  14.709105  12.319516  55.540922  -5.266875  -2.039618  21.304139  102.822254
0.057576  0.000000  0.000000  0.000000  -21.787804  2.707993  -7.756315  49.753849  14.794125  12.494018  54.689561  -4.563744  -1.615268  20.731328  102.656523
0.086364  0.000000  0.000000  0.000000  -21.804551  2.754454  -7.895304  49.858274  14.909164  12.568792  54.556525  -3.471859  -1.997323  20.155150  102.524613
0.115152  0.000000  0.000000  0.000000  -21.841839  2.834116  -7.939721  49.863419  15.060861  12.566366  54.977828  -2.037402  -3.040313  19.591459  102.422183
0.143939  0.000000  0.000000  0.000000  -21.899877  2.938460  -7.905688  49.799318  15.253548  12.506908  55.789489  -0.306554  -4.598766  19.056113  102.344891
0.172727  0.000000  0.000000  0.000000  -21.978876  3.058966  -7.813888  49.695169  15.495186  12.413414  56.827524  1.674503  -6.527211  18.564969  102.288396
0.201515  0.000000  0.000000  0.000000  -22.079045  3.187113  -7.683953  49.580303  15.793132  12.307992  57.927949  3.859585  -8.680175  18.133881  102.248356
0.230303  0.000000  0.000000  0.000000  -22.200594  3.314381  -7.534325  49.484247  16.154081  12.211751  58.926782  6.202512  -10.912187  17.778708  102.220430
0.259091  0.000000  0.000000  0.000000  -22.343733  3.432251  -7.383933  49.436472  16.585390  12.145860  59.660038  8.657101  -13.077775  17.515306  102.200276
0.287879  0.000000  0.000000  0.000000  -22.508670  3.532202  -7.253714  49.466138  17.096249  12.132484  59.963735  11.177170  -15.031467  17.359530  102.183554
0.316667  0.000000  0.000000  0.000000  -22.695482  3.606282  -7.160976  49.600774  17.693524  12.190735  59.684979  13.717706  -16.635677  17.325739  102.166222
0.345455  0.000000  0.000000  0.000000  -22.902059  3.655781  -7.093605  49.833380  18.363588  12.318261  58.851466  16.252749  -17.881211  17.403888  102.149150
0.374242  0.000000  0.000000  0.000000  -23.124517  3.689506  -7.011013  50.130098  19.072101  12.492887  57.637819  18.771837  -18.863340  17.564080  102.137200
0.403030  0.000000  0.000000  0.000000  -23.358916  3.716485  -6.868727  50.457580  19.781029  12.690637  56.222923  21.264957  -19.680362  17.775839  102.135350
0.431818  0.000000  0.000000  0.000000  -23.601319  3.745744  -6.624221  50.782575  20.453138  12.889789  54.785667  23.722099  -20.430580  18.008690  102.148579
0.460606  0.000000  0.000000  0.000000  -23.847875  3.786160  -6.235752  51.072569  21.051350  13.069656  53.502804  26.133145  -21.211085  18.232563  102.181817
0.489394  0.000000  0.000000  0.000000  -24.098842  3.839448  -5.690069  51.316950  21.559011  13.220304  52.450345  28.482946  -22.061849  18.436417  102.237734
0.518182  0.000000  0.000000  0.000000  -24.360278  3.897219  -5.027723  51.532267  21.999231  13.355482  51.562052  30.749255  -22.942195  18.636084  102.315809
0.546970  0.000000  0.000000  0.000000  -24.638679  3.950319  -4.287462  51.738124  22.393785  13.486474  50.760945  32.909288  -23.805354  18.849427  102.415277
0.575758  0.000000  0.000000  0.000000  -24.940542  3.989597  -3.510208  51.953207  22.766155  13.626011  49.970043  34.940260  -24.604558  19.094305  102.535377
0.604545  0.000000  0.000000  0.000000  -25.272350  4.005913  -2.750688  52.192217  23.150616  13.796199  49.112451  36.819408  -25.293089  19.388556  102.675337
0.633333  0.000000  0.000000  0.000000  -25.636021  3.995727  -2.017116  52.467568  23.544530  13.994572  48.143971  38.532447  -25.843692  19.740135  102.831371
0.662121  0.000000  0.000000  0.000000  -26.021987  3.969577  -1.292703  52.762674  23.925204  14.217932  47.102592  40.086392  -26.278037  20.132165  102.992108
0.690909  0.000000  0.000000  0.000000  -26.418907  3.940176  -0.542443  53.060115  24.255630  14.453333  46.039010  41.491555  -26.625359  20.543928  103.145009
0.719697  0.000000  0.000000  0.000000  -26.815438  3.920237  0.268128  53.342148  24.499344  14.688164  45.003921  42.758244  -26.914892  20.954706  103.277532
0.748485  0.000000  0.000000  0.000000  -27.200239  3.922471  1.169333  53.589557  24.623432  14.912427  44.048022  43.896772  -27.175870  21.343783  103.377136
0.777273  0.000000  0.000000  0.000000  -27.565560  3.955003  2.191103  53.791252  24.598888  15.113085  43.208845  44.917269  -27.432205  21.695691  103.439393
0.806061  0.000000  0.000000  0.000000  -27.920482  4.004452  3.306811  53.961490  24.457438  15.299679  42.462249  45.829028  -27.682877  22.019563  103.497895
0.834848  0.000000  0.000000  0.000000  -28.279013  4.051146  4.476775  54.123533  24.245396  15.486336  41.766043  46.641093  -27.919567  22.331733  103.597356
0.863636  0.000000  0.000000  0.000000  -28.655161  4.075410  5.658019  54.300690  24.011159  15.689753  41.078037  47.362513  -28.133956  22.648533  103.782493
0.892424  0.000000  0.000000  0.000000  -29.062933  4.057572  6.805743  54.517002  23.803832  15.928398  40.356037  48.002334  -28.317725  22.986296  104.098024
0.921212  0.000000  0.000000  0.000000  -29.513991  3.980305  7.877127  54.794280  23.668300  16.219464  39.564044  48.569161  -28.464102  23.358833  104.580496
0.950000  0.000000  0.000000  0.000000  -29.998648  3.847643  8.856017  55.124305  23.611907  16.556614  38.722380  49.067598  -28.580368  23.757000  105.192167
0.978788  0.000000  0.000000  0.000000  -30.495824  3.675017  9.741562  55.481799  23.622138  16.919295  37.881430  49.500114  -28.681312  24.159398  105.855638
1.007576  0.000000  0.000000  0.000000  -30.984331  3.477969  10.537059  55.840921  23.684212  17.283174  37.091863  49.869155  -28.781791  24.544517  106.493136
1.036364  0.000000  0.000000  0.000000  -31.442980  3.272039  11.246432  56.174615  23.783990  17.622406  36.404347  50.177170  -28.896663  24.890845  107.026889
1.065152  0.000000  0.000000  0.000000  -31.851120  3.072458  11.874791  56.456028  23.907313  17.910229  35.867523  50.426720  -29.039914  25.177538  107.382386
1.093939  0.000000  0.000000  0.000000  -32.198999  2.888185  12.423486  56.677876  24.043710  18.136593  35.488731  50.622718  -29.207757  25.397390  107.551620
1.122727  0.000000  0.000000  0.000000  -32.487048  2.722319  12.883884  56.850325  24.190762  18.311792  35.236745  50.772269  -29.379815  25.555926  107.588673
1.151515  0.000000  0.000000  0.000000  -32.716084  2.577736  13.247691  56.984788  24.345274  18.446983  35.078865  50.882562  -29.535074  25.659158  107.550002
1.180303  0.000000  0.000000  0.000000  -32.886928  2.457310  13.506040  57.092908  24.504209  18.553996  34.982388  50.960785  -29.652521  25.713099  107.492066
1.209091  0.000000  0.000000  0.000000  -33.000350  2.363942  13.648716  57.186201  24.665450  18.645499  34.914903  51.013996  -29.711328  25.723745  107.470870
